<mxfile host="app.diagrams.net" modified="2024-05-31T14:35:37.486Z" agent="Mozilla/5.0 (Windows NT 10.0; Win64; x64) AppleWebKit/537.36 (KHTML, like Gecko) Chrome/116.0.0.0 Safari/537.36" etag="Vkz7GkybnoLVxsr7p7en" version="24.4.13" type="github">
  <diagram name="第 1 页" id="kUjQFi2gFqRMFwFWCwo2">
    <mxGraphModel dx="264" dy="140" grid="1" gridSize="10" guides="1" tooltips="1" connect="1" arrows="1" fold="1" page="1" pageScale="1" pageWidth="827" pageHeight="1169" math="0" shadow="0">
      <root>
        <mxCell id="0" />
        <mxCell id="1" parent="0" />
        <mxCell id="A7NagGQwC6V7m_j_qcYH-1" value="" style="endArrow=classic;html=1;rounded=1;fillColor=none;curved=0;entryX=0;entryY=0.25;entryDx=0;entryDy=0;" edge="1" parent="1" target="A7NagGQwC6V7m_j_qcYH-7">
          <mxGeometry width="50" height="50" relative="1" as="geometry">
            <mxPoint x="170" y="180" as="sourcePoint" />
            <mxPoint x="270" y="100" as="targetPoint" />
            <Array as="points">
              <mxPoint x="170" y="140" />
              <mxPoint x="210" y="140" />
              <mxPoint x="210" y="100" />
            </Array>
          </mxGeometry>
        </mxCell>
        <mxCell id="A7NagGQwC6V7m_j_qcYH-2" value="A" style="edgeLabel;html=1;align=center;verticalAlign=middle;resizable=0;points=[];" vertex="1" connectable="0" parent="A7NagGQwC6V7m_j_qcYH-1">
          <mxGeometry x="-0.0759" relative="1" as="geometry">
            <mxPoint y="-12" as="offset" />
          </mxGeometry>
        </mxCell>
        <mxCell id="A7NagGQwC6V7m_j_qcYH-3" value="&lt;font style=&quot;font-size: 10px;&quot;&gt;X&lt;sub&gt;t-1&lt;/sub&gt;&lt;/font&gt;" style="ellipse;whiteSpace=wrap;html=1;aspect=fixed;" vertex="1" parent="1">
          <mxGeometry x="160" y="180" width="20" height="20" as="geometry" />
        </mxCell>
        <mxCell id="A7NagGQwC6V7m_j_qcYH-4" value="&lt;font style=&quot;font-size: 10px;&quot;&gt;h&lt;sub&gt;t-1&lt;/sub&gt;&lt;/font&gt;" style="ellipse;whiteSpace=wrap;html=1;aspect=fixed;" vertex="1" parent="1">
          <mxGeometry x="240" y="50" width="20" height="20" as="geometry" />
        </mxCell>
        <mxCell id="A7NagGQwC6V7m_j_qcYH-5" value="" style="endArrow=none;html=1;rounded=1;exitX=0.016;exitY=0.276;exitDx=0;exitDy=0;exitPerimeter=0;curved=0;" edge="1" parent="1">
          <mxGeometry width="50" height="50" relative="1" as="geometry">
            <mxPoint x="159.99999999999994" y="99.99999999999999" as="sourcePoint" />
            <mxPoint x="190" y="140" as="targetPoint" />
            <Array as="points">
              <mxPoint x="190" y="100" />
            </Array>
          </mxGeometry>
        </mxCell>
        <mxCell id="A7NagGQwC6V7m_j_qcYH-6" value="" style="endArrow=classic;html=1;rounded=1;curved=0;" edge="1" parent="1">
          <mxGeometry width="50" height="50" relative="1" as="geometry">
            <mxPoint x="220" y="100" as="sourcePoint" />
            <mxPoint x="249.6" y="70" as="targetPoint" />
            <Array as="points">
              <mxPoint x="250" y="100" />
            </Array>
          </mxGeometry>
        </mxCell>
        <mxCell id="A7NagGQwC6V7m_j_qcYH-7" value="" style="rounded=1;whiteSpace=wrap;html=1;fillColor=none;" vertex="1" parent="1">
          <mxGeometry x="280" y="80" width="100" height="80" as="geometry" />
        </mxCell>
        <mxCell id="A7NagGQwC6V7m_j_qcYH-8" value="" style="endArrow=classic;html=1;rounded=1;fillColor=none;curved=0;entryX=0;entryY=0.25;entryDx=0;entryDy=0;" edge="1" parent="1">
          <mxGeometry width="50" height="50" relative="1" as="geometry">
            <mxPoint x="290" y="180" as="sourcePoint" />
            <mxPoint x="400" y="100" as="targetPoint" />
            <Array as="points">
              <mxPoint x="290" y="140" />
              <mxPoint x="330" y="140" />
              <mxPoint x="330" y="100" />
            </Array>
          </mxGeometry>
        </mxCell>
        <mxCell id="A7NagGQwC6V7m_j_qcYH-9" value="tanh" style="edgeLabel;html=1;align=center;verticalAlign=middle;resizable=0;points=[];" vertex="1" connectable="0" parent="A7NagGQwC6V7m_j_qcYH-8">
          <mxGeometry x="-0.0759" relative="1" as="geometry">
            <mxPoint y="-12" as="offset" />
          </mxGeometry>
        </mxCell>
        <mxCell id="A7NagGQwC6V7m_j_qcYH-10" value="&lt;font style=&quot;font-size: 10px;&quot;&gt;X&lt;sub&gt;t&lt;/sub&gt;&lt;/font&gt;" style="ellipse;whiteSpace=wrap;html=1;aspect=fixed;" vertex="1" parent="1">
          <mxGeometry x="280" y="180" width="20" height="20" as="geometry" />
        </mxCell>
        <mxCell id="A7NagGQwC6V7m_j_qcYH-11" value="&lt;font style=&quot;font-size: 10px;&quot;&gt;h&lt;sub&gt;t&lt;/sub&gt;&lt;/font&gt;" style="ellipse;whiteSpace=wrap;html=1;aspect=fixed;" vertex="1" parent="1">
          <mxGeometry x="360" y="50" width="20" height="20" as="geometry" />
        </mxCell>
        <mxCell id="A7NagGQwC6V7m_j_qcYH-12" value="" style="endArrow=none;html=1;rounded=1;exitX=0.016;exitY=0.276;exitDx=0;exitDy=0;exitPerimeter=0;curved=0;" edge="1" parent="1">
          <mxGeometry width="50" height="50" relative="1" as="geometry">
            <mxPoint x="279.99999999999994" y="100" as="sourcePoint" />
            <mxPoint x="310" y="140" as="targetPoint" />
            <Array as="points">
              <mxPoint x="310" y="100" />
            </Array>
          </mxGeometry>
        </mxCell>
        <mxCell id="A7NagGQwC6V7m_j_qcYH-13" value="" style="endArrow=classic;html=1;rounded=1;curved=0;" edge="1" parent="1">
          <mxGeometry width="50" height="50" relative="1" as="geometry">
            <mxPoint x="340" y="100" as="sourcePoint" />
            <mxPoint x="369.6" y="70" as="targetPoint" />
            <Array as="points">
              <mxPoint x="370" y="100" />
            </Array>
          </mxGeometry>
        </mxCell>
        <mxCell id="A7NagGQwC6V7m_j_qcYH-14" value="" style="endArrow=classic;html=1;rounded=1;fillColor=none;curved=0;" edge="1" parent="1">
          <mxGeometry width="50" height="50" relative="1" as="geometry">
            <mxPoint x="410" y="180" as="sourcePoint" />
            <mxPoint x="520" y="100" as="targetPoint" />
            <Array as="points">
              <mxPoint x="410" y="140" />
              <mxPoint x="450" y="140" />
              <mxPoint x="450" y="100" />
            </Array>
          </mxGeometry>
        </mxCell>
        <mxCell id="A7NagGQwC6V7m_j_qcYH-15" value="A" style="edgeLabel;html=1;align=center;verticalAlign=middle;resizable=0;points=[];" vertex="1" connectable="0" parent="A7NagGQwC6V7m_j_qcYH-14">
          <mxGeometry x="-0.0759" relative="1" as="geometry">
            <mxPoint y="-17" as="offset" />
          </mxGeometry>
        </mxCell>
        <mxCell id="A7NagGQwC6V7m_j_qcYH-16" value="&lt;font style=&quot;font-size: 10px;&quot;&gt;X&lt;sub&gt;t+1&lt;/sub&gt;&lt;/font&gt;" style="ellipse;whiteSpace=wrap;html=1;aspect=fixed;" vertex="1" parent="1">
          <mxGeometry x="400" y="180" width="20" height="20" as="geometry" />
        </mxCell>
        <mxCell id="A7NagGQwC6V7m_j_qcYH-17" value="&lt;font style=&quot;font-size: 10px;&quot;&gt;h&lt;sub&gt;t+1&lt;/sub&gt;&lt;/font&gt;" style="ellipse;whiteSpace=wrap;html=1;aspect=fixed;" vertex="1" parent="1">
          <mxGeometry x="480" y="50" width="20" height="20" as="geometry" />
        </mxCell>
        <mxCell id="A7NagGQwC6V7m_j_qcYH-18" value="" style="endArrow=none;html=1;rounded=1;exitX=0.016;exitY=0.276;exitDx=0;exitDy=0;exitPerimeter=0;curved=0;" edge="1" parent="1">
          <mxGeometry width="50" height="50" relative="1" as="geometry">
            <mxPoint x="399.99999999999994" y="100" as="sourcePoint" />
            <mxPoint x="430" y="140" as="targetPoint" />
            <Array as="points">
              <mxPoint x="430" y="100" />
            </Array>
          </mxGeometry>
        </mxCell>
        <mxCell id="A7NagGQwC6V7m_j_qcYH-19" value="" style="endArrow=classic;html=1;rounded=1;curved=0;" edge="1" parent="1">
          <mxGeometry width="50" height="50" relative="1" as="geometry">
            <mxPoint x="460" y="100" as="sourcePoint" />
            <mxPoint x="489.6" y="70" as="targetPoint" />
            <Array as="points">
              <mxPoint x="490" y="100" />
            </Array>
          </mxGeometry>
        </mxCell>
        <mxCell id="A7NagGQwC6V7m_j_qcYH-20" value="" style="rounded=1;whiteSpace=wrap;html=1;opacity=60;" vertex="1" parent="1">
          <mxGeometry x="160" y="80" width="100" height="80" as="geometry" />
        </mxCell>
        <mxCell id="A7NagGQwC6V7m_j_qcYH-22" value="" style="endArrow=classic;html=1;rounded=1;curved=0;fontSize=10;fontFamily=Times New Roman;" edge="1" parent="1">
          <mxGeometry width="50" height="50" relative="1" as="geometry">
            <mxPoint x="325" y="370" as="sourcePoint" />
            <mxPoint x="335" y="290" as="targetPoint" />
            <Array as="points">
              <mxPoint x="325" y="340" />
              <mxPoint x="335" y="340" />
            </Array>
          </mxGeometry>
        </mxCell>
        <mxCell id="A7NagGQwC6V7m_j_qcYH-26" value="&lt;span style=&quot;color: rgb(51, 51, 51); font-size: 10px; text-align: start; text-wrap: wrap;&quot;&gt;α&lt;/span&gt;" style="edgeLabel;html=1;align=center;verticalAlign=middle;resizable=0;points=[];fontSize=10;fontFamily=Times New Roman;" vertex="1" connectable="0" parent="A7NagGQwC6V7m_j_qcYH-22">
          <mxGeometry x="0.2395" y="1" relative="1" as="geometry">
            <mxPoint as="offset" />
          </mxGeometry>
        </mxCell>
        <mxCell id="A7NagGQwC6V7m_j_qcYH-23" value="" style="endArrow=classic;html=1;rounded=1;curved=0;fontSize=10;fontFamily=Times New Roman;" edge="1" parent="1">
          <mxGeometry width="50" height="50" relative="1" as="geometry">
            <mxPoint x="340" y="340" as="sourcePoint" />
            <mxPoint x="370" y="310" as="targetPoint" />
            <Array as="points">
              <mxPoint x="350" y="340" />
              <mxPoint x="350" y="310" />
            </Array>
          </mxGeometry>
        </mxCell>
        <mxCell id="A7NagGQwC6V7m_j_qcYH-28" value="&lt;span style=&quot;color: rgb(51, 51, 51); font-size: 10px; text-align: start; text-wrap: wrap;&quot;&gt;α&lt;/span&gt;" style="edgeLabel;html=1;align=center;verticalAlign=middle;resizable=0;points=[];fontSize=10;fontFamily=Times New Roman;" vertex="1" connectable="0" parent="A7NagGQwC6V7m_j_qcYH-23">
          <mxGeometry x="-0.037" y="-1" relative="1" as="geometry">
            <mxPoint y="4" as="offset" />
          </mxGeometry>
        </mxCell>
        <mxCell id="A7NagGQwC6V7m_j_qcYH-24" value="" style="endArrow=classic;html=1;rounded=1;curved=0;fontSize=10;fontFamily=Times New Roman;" edge="1" parent="1" source="A7NagGQwC6V7m_j_qcYH-32">
          <mxGeometry width="50" height="50" relative="1" as="geometry">
            <mxPoint x="350" y="340" as="sourcePoint" />
            <mxPoint x="370" y="290" as="targetPoint" />
            <Array as="points" />
          </mxGeometry>
        </mxCell>
        <mxCell id="A7NagGQwC6V7m_j_qcYH-29" value="&lt;font style=&quot;font-size: 10px;&quot;&gt;tanh&lt;/font&gt;" style="edgeLabel;html=1;align=center;verticalAlign=middle;resizable=0;points=[];fontSize=10;fontFamily=Times New Roman;" vertex="1" connectable="0" parent="A7NagGQwC6V7m_j_qcYH-24">
          <mxGeometry x="0.164" y="-1" relative="1" as="geometry">
            <mxPoint x="-1" y="32" as="offset" />
          </mxGeometry>
        </mxCell>
        <mxCell id="A7NagGQwC6V7m_j_qcYH-25" value="" style="endArrow=classic;html=1;rounded=1;curved=0;fontSize=10;fontFamily=Times New Roman;" edge="1" parent="1">
          <mxGeometry width="50" height="50" relative="1" as="geometry">
            <mxPoint x="330" y="340" as="sourcePoint" />
            <mxPoint x="405" y="320" as="targetPoint" />
            <Array as="points">
              <mxPoint x="385" y="340" />
              <mxPoint x="385" y="320" />
            </Array>
          </mxGeometry>
        </mxCell>
        <mxCell id="A7NagGQwC6V7m_j_qcYH-30" value="&lt;span style=&quot;color: rgb(51, 51, 51); font-size: 10px; text-align: start; text-wrap: wrap;&quot;&gt;α&lt;/span&gt;" style="edgeLabel;html=1;align=center;verticalAlign=middle;resizable=0;points=[];fontSize=10;fontFamily=Times New Roman;" vertex="1" connectable="0" parent="A7NagGQwC6V7m_j_qcYH-25">
          <mxGeometry x="0.3427" y="1" relative="1" as="geometry">
            <mxPoint as="offset" />
          </mxGeometry>
        </mxCell>
        <mxCell id="A7NagGQwC6V7m_j_qcYH-32" value="×" style="ellipse;whiteSpace=wrap;html=1;aspect=fixed;" vertex="1" parent="1">
          <mxGeometry x="365" y="310" width="10" height="10" as="geometry" />
        </mxCell>
        <mxCell id="A7NagGQwC6V7m_j_qcYH-33" value="" style="endArrow=classic;html=1;rounded=1;curved=0;fontSize=10;fontFamily=Times New Roman;" edge="1" parent="1" target="A7NagGQwC6V7m_j_qcYH-32">
          <mxGeometry width="50" height="50" relative="1" as="geometry">
            <mxPoint x="350" y="340" as="sourcePoint" />
            <mxPoint x="370" y="290" as="targetPoint" />
            <Array as="points">
              <mxPoint x="370" y="340" />
            </Array>
          </mxGeometry>
        </mxCell>
      </root>
    </mxGraphModel>
  </diagram>
</mxfile>
